<?xml version="1.0" standalone="no"?>
<!DOCTYPE svg PUBLIC "-//W3C//DTD SVG 20010904//EN"
 "http://www.w3.org/TR/2001/REC-SVG-20010904/DTD/svg10.dtd">
<svg version="1.0" xmlns="http://www.w3.org/2000/svg"
 width="205.000000pt" height="206.000000pt" viewBox="0 0 205.000000 206.000000"
 preserveAspectRatio="xMidYMid meet">

<g transform="translate(0.000000,206.000000) scale(0.100000,-0.100000)"
fill="#000000" stroke="none">
<path d="M515 1540 l-510 -511 195 -189 195 -188 83 81 82 82 -107 108 -108
108 339 332 c186 183 343 334 349 336 5 2 55 -42 111 -98 l101 -101 85 85 85
85 -190 190 c-104 105 -192 190 -195 190 -3 0 -235 -230 -515 -510z"/>
<path d="M911 1323 l-111 -118 0 -176 0 -177 111 -116 c61 -64 114 -116 117
-116 4 1 102 93 217 205 l210 204 -209 203 c-115 112 -212 204 -216 206 -4 2
-58 -50 -119 -115z"/>
<path d="M1580 1335 l-85 -85 110 -110 110 -110 -343 -342 -342 -343 -108 108
-107 107 -83 -82 -82 -83 192 -192 191 -191 509 501 c279 276 508 509 508 517
0 13 -367 390 -380 390 -3 0 -44 -38 -90 -85z"/>
</g>
</svg>
